# xmcd CD database file
#
# Track frame offsets:
#	150
#	53107
#	140783
#	179307
#
# Disc length: 2862 seconds
#
# Revision: 0
# Processed by: cddbd v1.5.1PL0 Copyright (c) Steve Scherf et al.
# Submitted via: CDex 1.51
#
DISCID=360b2c04
DTITLE=Nik Tyndall - Four Seasons
DYEAR=1993
DGENRE=New Age
TTITLE0=Spring
TTITLE1=Summer
TTITLE2=Autumn
TTITLE3=Winter
EXTD=YEAR: 1993
EXTT0=
EXTT1=
EXTT2=
EXTT3=
PLAYORDER=
